<?xml version="1.0" encoding="UTF-8"?><svg xmlns="http://www.w3.org/2000/svg" viewBox="0 0 603.6 142.44"><defs><style>.d{fill:#0b0b0b;}</style></defs><g id="a"/><g id="b"><g id="c"><g><g><path class="d" d="M3.64,142.02v-29.33h5.47v29.33H3.64Z"/><path class="d" d="M56.13,142.02v-29.33h5.48l10.49,19.76h.08v-19.76h5.31v29.33h-5.52l-10.49-18.98h-.08v18.98h-5.27Z"/><path class="d" d="M124.5,142.02v-29.33h10.36c9.7,0,11.86,7.34,11.86,14.66s-2.16,14.67-11.86,14.67h-10.36Zm9.71-4.74c5.82,0,6.77-5.26,6.77-9.93s-.95-9.92-6.77-9.92h-4.23v19.85h4.23Z"/><path class="d" d="M214.31,131.66c0,7.51-4.14,10.78-10.44,10.78s-10.58-3.27-10.58-10.78v-18.98h5.48v18.98c0,2.98,.86,5.98,5.09,5.98,3.97,0,4.96-3,4.96-5.98v-18.98h5.47v18.98Z"/><path class="d" d="M268.52,129.46c-4.36-1.34-7.98-4.18-7.98-9.1,0-5.48,4.31-8.12,9.96-8.12,2.55,0,5.37,.22,8.29,.91v3.98h-8.2c-3.15,0-4.31,1.23-4.31,3.05,0,2.64,2.8,3.76,6.16,4.71,4.66,1.25,8.08,3.62,8.08,8.71,0,5.52-4.28,8.84-10.19,8.84-2.55,0-6.86-.2-9.8-.9v-3.9h9.62c3.23,0,4.62-1.67,4.62-3.68,0-2.81-3.02-3.51-6.26-4.5Z"/><path class="d" d="M338.27,117.42v24.6h-5.49v-24.6h-7.54v-4.74h20.58v4.74h-7.55Z"/><path class="d" d="M400.72,130.93h-3.93v11.09h-5.48v-29.33h11c5.83,0,9.28,4.01,9.28,9.18,0,3.97-1.94,7.03-5.52,8.12l6.91,12.03h-5.92l-6.34-11.09Zm-3.93-13.51v8.76h3.53c3.41,0,5.53-.74,5.53-4.32,0-2.76-1.56-4.44-4.19-4.44h-4.87Z"/><path class="d" d="M458.04,142.02v-29.33h5.48v29.33h-5.48Z"/><path class="d" d="M528.66,117.42h-12.65v7.25h10.58v4.74h-10.58v7.86h12.65v4.74h-18.13v-29.33h18.13v4.74Z"/><path class="d" d="M582.23,129.46c-4.37-1.34-7.99-4.18-7.99-9.1,0-5.48,4.32-8.12,9.96-8.12,2.56,0,5.36,.22,8.29,.91v3.98h-8.2c-3.14,0-4.31,1.23-4.31,3.05,0,2.64,2.81,3.76,6.17,4.71,4.66,1.25,8.07,3.62,8.07,8.71,0,5.52-4.28,8.84-10.19,8.84-2.54,0-6.86-.2-9.79-.9v-3.9h9.62c3.24,0,4.62-1.67,4.62-3.68,0-2.81-3.02-3.51-6.25-4.5Z"/></g><g><path class="d" d="M28.24,1.11c14.94,0,23.79,9.41,23.79,23.79s-8.85,23.58-23.79,23.58H14.07v27.89H0V1.11H28.24ZM14.07,13.29v23.02h11.95c6.75,0,11.29-3.32,11.29-11.4s-4.54-11.62-11.29-11.62H14.07Z"/><path class="d" d="M94.96,47.94h-10.06v28.44h-14.06V1.11h28.22c14.95,0,23.8,10.29,23.8,23.57,0,10.18-4.97,18.04-14.17,20.82l17.72,30.88h-15.16l-16.29-28.44Zm-10.06-34.65v22.47h9.08c8.74,0,14.17-1.88,14.17-11.07,0-7.08-3.99-11.4-10.74-11.4h-12.51Z"/><path class="d" d="M141.88,38.75c0-18.81,4.99-38.75,29.89-38.75s29.89,19.94,29.89,38.75-4.98,38.75-29.89,38.75-29.89-19.93-29.89-38.75Zm45.06,0c0-11.85-1.67-26.24-15.17-26.24s-15.27,14.39-15.27,26.24,1.66,26.35,15.27,26.35,15.17-14.39,15.17-26.35Z"/><path class="d" d="M249.78,1.11c14.95,0,23.8,9.41,23.8,23.79s-8.86,23.58-23.8,23.58h-14.16v27.89h-14.06V1.11h28.22Zm-14.16,12.17v23.02h11.95c6.76,0,11.29-3.32,11.29-11.4s-4.53-11.62-11.29-11.62h-11.95Z"/><path class="d" d="M338.88,13.29h-32.44V31.88h27.12v12.18h-27.12v20.14h32.44v12.19h-46.5V1.11h46.5V13.29Z"/><path class="d" d="M372.3,1.11v63.08h30.77v12.19h-44.83V1.11h14.06Z"/><path class="d" d="M434.27,1.11v63.08h30.77v12.19h-44.83V1.11h14.06Z"/><path class="d" d="M528.68,13.29h-32.43V31.88h27.12v12.18h-27.12v20.14h32.43v12.19h-46.49V1.11h46.49V13.29Z"/><path class="d" d="M572.17,47.94h-10.08v28.44h-14.05V1.11h28.22c14.95,0,23.8,10.29,23.8,23.57,0,10.18-4.97,18.04-14.17,20.82l17.71,30.88h-15.16l-16.28-28.44Zm-10.08-34.65v22.47h9.08c8.74,0,14.18-1.88,14.18-11.07,0-7.08-3.98-11.4-10.75-11.4h-12.51Z"/></g></g></g></g></svg>